HIERARCHY
ROOT root
{
	OFFSET 0.000000 0.000000 0.000000
	CHANNELS 6 Xposition Yposition Zposition Zrotation Yrotation Xrotation
	JOINT lhip
	{
		OFFSET 0.058581 -0.082280 -0.017664
		CHANNELS 3 Zrotation Yrotation Xrotation
		JOINT lknee
		{
			OFFSET 0.043451 -0.386469 0.008037
			CHANNELS 3 Zrotation Yrotation Xrotation
			JOINT lankle
			{
				OFFSET -0.014790 -0.426874 -0.037428
				CHANNELS 3 Zrotation Yrotation Xrotation
				JOINT ltoe
				{
					OFFSET 0.041054 -0.060286 0.122042
					CHANNELS 3 Zrotation Yrotation Xrotation
					End Site
					{
						OFFSET 0.000000 0.000000 0.000000
					}
				}
			}
		}
	}
	JOINT rhip
	{
		OFFSET -0.060310 -0.090513 -0.013543
		CHANNELS 3 Zrotation Yrotation Xrotation
		JOINT rknee
		{
			OFFSET -0.043257 -0.383688 -0.004843
			CHANNELS 3 Zrotation Yrotation Xrotation
			JOINT rankle
			{
				OFFSET 0.019056 -0.420046 -0.034562
				CHANNELS 3 Zrotation Yrotation Xrotation
				JOINT rtoe
				{
					OFFSET -0.034840 -0.062106 0.130323
					CHANNELS 3 Zrotation Yrotation Xrotation
					End Site
					{
						OFFSET 0.000000 0.000000 0.000000
					}
				}
			}
		}
	}
	JOINT lowerback
	{
		OFFSET 0.004439 0.124404 -0.038385
		CHANNELS 3 Zrotation Yrotation Xrotation
		JOINT upperback
		{
			OFFSET 0.004488 0.137956 0.026820
			CHANNELS 3 Zrotation Yrotation Xrotation
			JOINT chest
			{
				OFFSET -0.002265 0.056032 0.002855
				CHANNELS 3 Zrotation Yrotation Xrotation
				JOINT lowerneck
				{
					OFFSET -0.013390 0.211636 -0.033468
					CHANNELS 3 Zrotation Yrotation Xrotation
					JOINT upperneck
					{
						OFFSET 0.010113 0.088937 0.050410
						CHANNELS 3 Zrotation Yrotation Xrotation
						End Site
						{
							OFFSET 0.000000 0.000000 0.000000
						}
					}
				}
				JOINT lclavicle
				{
					OFFSET 0.071702 0.114000 -0.018898
					CHANNELS 3 Zrotation Yrotation Xrotation
					JOINT lshoulder
					{
						OFFSET 0.122921 0.045205 -0.019046
						CHANNELS 3 Zrotation Yrotation Xrotation
						JOINT lelbow
						{
							OFFSET 0.255332 -0.015649 -0.022946
							CHANNELS 3 Zrotation Yrotation Xrotation
							JOINT lwrist
							{
								OFFSET 0.265709 0.012698 -0.007375
								CHANNELS 3 Zrotation Yrotation Xrotation
								End Site
								{
									OFFSET 0.000000 0.000000 0.000000
								}
							}
						}
					}
				}
				JOINT rclavicle
				{
					OFFSET -0.082954 0.112472 -0.023707
					CHANNELS 3 Zrotation Yrotation Xrotation
					JOINT rshoulder
					{
						OFFSET -0.113228 0.046853 -0.008472
						CHANNELS 3 Zrotation Yrotation Xrotation
						JOINT relbow
						{
							OFFSET -0.260127 -0.014369 -0.031269
							CHANNELS 3 Zrotation Yrotation Xrotation
							JOINT rwrist
							{
								OFFSET -0.269108 0.006794 -0.006027
								CHANNELS 3 Zrotation Yrotation Xrotation
								End Site
								{
									OFFSET 0.000000 0.000000 0.000000
								}
							}
						}
					}
				}
			}
		}
	}
}
MOTION
Frames: 11
Frame Time: 0.033333
0.569748 0.136435 0.978828 -128.170142 2.106303 91.079423 7.985964 6.561452 21.698312 -3.446038 -11.509019 0.195539 3.287561 14.589536 -28.490637 0.000000 -0.000000 0.000000 -6.785945 7.519074 -41.546714 0.403243 -5.436974 29.043122 8.533808 -12.325213 -16.448824 0.000000 -0.000000 0.000000 1.831327 -14.934016 -2.480845 1.004484 -3.329147 -8.647154 -2.809196 -9.757470 1.251514 3.314161 -0.842294 14.958948 -0.672456 2.860366 13.940348 -14.858210 5.584079 -0.928925 -39.581790 -25.110580 10.939430 -8.821804 -61.634512 29.897416 -20.982177 -14.668062 -1.546564 6.510782 -17.444310 -1.542015 35.295954 -6.467950 26.712556 63.581871 60.888641 92.680463 35.443533 12.541785 -11.312045 
0.553459 0.161849 0.968339 -127.975882 2.010842 91.846470 8.712827 6.461338 22.868795 -3.279856 -11.637824 0.446071 2.903949 14.780450 -29.069983 0.000000 -0.000000 0.000000 -6.806682 7.029566 -41.995203 0.786046 -5.637322 30.521721 8.864033 -12.206222 -13.094266 0.000000 -0.000000 0.000000 1.808572 -15.097740 -3.022114 1.107900 -3.400678 -8.172453 -2.782921 -9.869286 1.240301 3.231506 -1.390371 14.936073 -0.624617 2.946625 13.600791 -14.869226 5.553853 -1.003586 -39.524506 -25.307561 10.866720 -9.159715 -62.124715 30.213562 -21.629181 -14.698920 -1.661861 6.263206 -17.657289 -1.696670 34.670721 -6.391593 26.616440 64.464447 61.004568 93.547443 36.784065 12.531271 -11.351588 
0.539646 0.187426 0.959972 -128.632666 1.958495 92.649241 9.381726 6.442075 23.825591 -3.328702 -11.782852 1.056936 2.412325 15.053352 -28.818082 0.000000 -0.000000 0.000000 -6.499211 6.777229 -44.224382 1.438514 -6.106027 35.126645 9.449881 -10.752032 -9.783173 0.000000 -0.000000 0.000000 1.438502 -15.145013 -2.470976 1.432654 -2.921349 -8.279063 -2.529385 -9.734388 1.332880 3.661229 -1.164789 14.557655 -0.675887 2.813936 14.023863 -15.046846 5.699832 -1.420518 -39.827106 -25.175114 10.964272 -9.203307 -62.822802 29.977984 -21.769645 -14.466983 -1.546971 6.618194 -17.496462 -2.091652 34.680034 -5.898882 26.322141 63.416355 61.426262 92.140315 37.247066 12.389909 -11.452939 
0.527401 0.213225 0.956288 -129.661145 2.210558 93.352201 10.076966 5.846485 24.535804 -3.417331 -11.847829 2.165465 1.146860 14.851448 -27.398030 0.000000 -0.000000 0.000000 -6.085820 7.809037 -45.865192 1.942561 -6.876240 38.218450 8.521532 -10.697043 -6.100827 0.000000 -0.000000 0.000000 1.105599 -15.252471 -1.827487 1.850578 -2.425744 -7.464174 -2.303416 -9.383377 1.380649 4.327192 -0.826432 14.209169 -0.690925 2.478341 14.601892 -15.287066 5.939384 -1.504983 -40.095909 -24.858270 10.921663 -8.239911 -63.680147 28.760576 -21.573543 -14.228807 -1.542776 7.436533 -16.768584 -2.366689 36.041917 -4.455121 26.122661 59.525218 61.758286 88.496946 37.603426 11.654551 -11.165272 
0.514040 0.240267 0.957833 -130.096766 2.031600 93.218927 10.527046 5.579471 25.128826 -3.467608 -12.082453 4.833168 -0.272767 14.381822 -24.785207 0.000000 -0.000000 0.000000 -4.515471 7.964852 -45.175450 1.451769 -6.702025 40.576962 5.879443 -10.682283 -5.818581 0.000000 -0.000000 0.000000 0.269835 -14.912007 -0.631097 1.947079 -2.275139 -6.252906 -2.197934 -9.006002 1.520897 4.941900 -0.214902 14.451365 -0.460682 1.586566 15.797759 -15.187955 5.423708 -1.512552 -40.565827 -24.216289 10.854054 -8.428750 -63.608708 29.263821 -20.877981 -13.848916 -1.445916 8.201356 -15.651646 -2.368012 38.588299 -3.834911 25.467314 55.266812 62.196827 84.781912 37.291724 10.976536 -11.213112 
0.501659 0.266895 0.964253 -130.087432 1.784469 93.247965 10.431770 4.883954 23.497893 -3.669518 -11.019650 10.413871 -1.239842 14.295887 -21.059001 0.000000 -0.000000 0.000000 -3.320508 8.726747 -43.676998 0.970064 -6.308168 41.482796 4.123532 -11.192508 -6.915782 0.000000 -0.000000 0.000000 -0.579873 -14.211619 0.555182 2.212746 -2.360748 -5.394962 -2.089268 -8.745358 1.780371 5.216478 0.611375 15.577165 -0.240533 1.553756 17.364250 -15.296569 4.902919 -1.198596 -41.710274 -23.561333 11.240187 -7.772032 -62.787753 28.549257 -18.906886 -13.232754 -1.987740 8.977102 -14.528367 -2.082103 41.157234 -3.013236 25.298440 51.060079 62.716283 80.937651 35.623540 10.587912 -11.701968 
0.488983 0.292020 0.973711 -130.049321 1.634343 93.051249 10.255511 4.156979 20.550104 -3.961056 -8.814659 18.238644 -1.896540 14.067058 -15.595791 0.000000 -0.000000 0.000000 -2.170416 9.750135 -41.223007 0.286886 -6.244729 41.349779 2.658170 -11.310461 -8.356015 0.000000 -0.000000 0.000000 -0.954560 -13.203736 1.751761 2.389774 -2.324157 -4.409087 -2.133939 -8.367123 1.720878 5.311804 0.991705 17.545819 0.070339 1.336804 18.859243 -15.410577 4.410617 -0.783478 -43.051137 -22.910648 11.785893 -7.302264 -61.891896 28.791900 -18.638925 -12.689019 -1.356723 9.605269 -13.523887 -1.754564 43.596142 -2.190226 25.017002 47.725593 63.205514 78.561280 34.964016 10.132697 -11.816649 
0.474503 0.316097 0.983843 -129.451897 1.280180 92.825414 10.091446 3.089088 16.581150 -4.284624 -6.665279 26.972794 -1.899100 13.269885 -9.017977 0.000000 -0.000000 0.000000 -1.097874 8.938565 -38.063501 0.061195 -6.139580 40.344590 1.205609 -10.691884 -9.791519 0.000000 -0.000000 0.000000 -1.028123 -11.427947 2.055619 2.565118 -2.856831 -3.120320 -2.374855 -8.104602 1.735686 5.005784 0.481677 19.987258 0.573929 0.928967 19.674453 -15.680295 4.129470 -0.430413 -44.563936 -22.394984 12.654336 -7.923956 -61.226003 30.274100 -17.032583 -12.133880 -1.669279 10.235288 -12.718938 -1.400852 45.587993 -1.172335 24.410528 44.261727 63.403678 75.540246 33.371181 9.829084 -12.252424 
0.460910 0.338223 0.993299 -129.677847 0.916563 92.570534 9.388973 1.650289 11.880896 -4.649365 -4.402151 36.245642 -0.573347 12.633257 -2.473693 0.000000 -0.000000 0.000000 -0.141237 8.240519 -34.999305 0.155968 -5.704417 38.965120 0.066386 -10.003350 -10.676936 0.000000 -0.000000 0.000000 -1.002366 -9.582114 2.513876 2.629624 -2.750465 -2.343602 -2.401728 -7.494428 1.704034 4.582095 -0.172047 21.693641 1.067688 0.607752 20.568195 -15.849535 4.356567 -0.118364 -46.331354 -21.506304 13.455827 -8.877279 -61.594421 31.945577 -15.492531 -11.682952 -2.837747 10.658871 -11.741052 -0.892814 47.137071 0.185792 23.996428 41.178023 63.727436 73.017930 31.916173 9.224988 -11.628818 
0.446919 0.358540 1.001289 -130.537526 0.560714 92.149865 8.530794 0.503382 6.982114 -6.363957 -2.848132 45.464314 -0.419490 10.999286 -3.954063 0.000000 -0.000000 0.000000 0.745777 7.999895 -31.992511 0.025794 -5.000305 37.664652 -0.081434 -9.157457 -11.705853 0.000000 -0.000000 0.000000 -1.012578 -7.631063 3.182915 2.800159 -2.224900 -2.016394 -2.280272 -6.554314 1.813365 4.911301 -0.697254 22.621392 1.114062 -0.039540 20.808569 -15.920714 4.609377 -0.072621 -47.772163 -20.245038 14.409290 -11.602646 -62.533815 35.639931 -14.497660 -11.651462 -3.526713 11.001496 -10.706196 -0.688827 47.659050 1.755849 23.542317 39.769401 64.225717 71.813382 31.316160 8.977449 -11.813086 
0.432060 0.378018 1.008374 -131.174113 0.252317 91.508762 7.881563 -0.294679 2.028828 -7.864474 -0.753880 52.732353 -0.403343 9.742919 -7.562027 0.000000 -0.000000 0.000000 1.648497 7.431826 -28.648991 -0.218124 -4.198022 36.099752 -0.138282 -8.528881 -12.677805 0.000000 -0.000000 0.000000 -0.696386 -5.718239 3.763934 2.908616 -1.925051 -1.984456 -2.245658 -5.788562 2.060434 5.088126 -1.252145 23.275270 0.956330 -0.504245 20.631381 -15.864036 4.765084 -0.090551 -48.724217 -18.496117 15.211322 -15.578323 -63.225570 40.395896 -13.558951 -11.766136 -4.466514 10.918379 -9.617562 -0.687915 48.351959 3.723702 23.011624 37.557068 64.102050 69.711862 30.712609 8.593775 -11.649770 
